<?xml version="1.0" encoding="utf-8"?>
<!-- Generator: Adobe Illustrator 21.0.0, SVG Export Plug-In . SVG Version: 6.00 Build 0)  -->
<svg version="1.1" id="Layer_1" xmlns="http://www.w3.org/2000/svg" xmlns:xlink="http://www.w3.org/1999/xlink" x="0px" y="0px"
	 viewBox="0 0 293 191" style="enable-background:new 0 0 293 191;" xml:space="preserve">
<style type="text/css">
	.st0{fill:#262626;}
	.st1{fill:#4C4C4C;}
</style>
<g>
	<path class="st0" d="M22.2,22h37.7v18.1H42.5v22.7h16.7V81H42.5v24.3h17.7v18.1h-38V22z"/>
	<path class="st0" d="M66.7,123.4V22h28.5c14.5,0,21.7,7.2,21.7,21.7v57.9c0,14.5-7.2,21.7-21.7,21.7H66.7z M87,39.4V106H91
		c3.8,0,5.6-1.9,5.6-5.6V45.1c0-3.8-1.9-5.6-5.6-5.6H87z"/>
	<path class="st0" d="M146.3,56.4l7.2-34.3h19.3l-17.1,65.3v36.1h-20.3V88.8L118.4,22h21.1L146.3,56.4z"/>
	<path class="st0" d="M205.2,78.7h20v26.8c0,12.6-6.3,18.8-18.8,18.8h-12.5c-12.6,0-18.8-6.3-18.8-18.8V40
		c0-12.6,6.3-18.8,18.8-18.8H206c12.6,0,18.8,6.3,18.8,18.8v23.8h-20V42.2c0-2.4-1.2-3.6-3.6-3.6h-2.3c-2.4,0-3.6,1.2-3.6,3.6v61.1
		c0,2.4,1.2,3.6,3.6,3.6h2.6c2.4,0,3.6-1.2,3.6-3.6V78.7z"/>
</g>
<g>
	<path class="st1" d="M45,167.2H21.7v-37.6H45v4.2H26.4v12.1h17.7v4.2H26.4v12.9H45V167.2z"/>
	<path class="st1" d="M50.7,139h4.3v4.6H55c1.8-3.2,4.6-4.8,8.9-4.8c6.2,0,9.8,4,9.8,10.4v18h-4.5v-17.2c0-4.6-2.1-7.1-6.6-7.1
		c-4.6,0-7.4,3.2-7.4,8v16.3h-4.5V139z"/>
	<path class="st1" d="M85.8,132.7v6.3h5.5v3.8h-5.5v16.9c0,2.6,1.1,3.8,3.5,3.8c0.5,0,1.6-0.1,2-0.1v3.8c-0.5,0.1-1.9,0.2-2.9,0.2
		c-5.1,0-7.1-2.1-7.1-7.5v-17.1h-3.9V139h3.9v-6.3H85.8z"/>
	<path class="st1" d="M118.6,159.1c-0.8,4.8-5.7,8.3-11.7,8.3c-7.9,0-12.9-5.5-12.9-14.2c0-8.7,5-14.4,12.7-14.4
		c7.5,0,12.2,5.3,12.2,13.8v1.8H98.8v0.3c0,5.3,3.3,8.8,8.3,8.8c3.5,0,6.3-1.7,7.1-4.3H118.6z M98.8,150.7h15.5
		c-0.1-4.8-3.1-8-7.6-8C102.3,142.8,99.1,146,98.8,150.7z"/>
	<path class="st1" d="M123.7,139h4.3v4.6h0.1c0.8-2.9,3.5-4.8,6.8-4.8c0.8,0,1.5,0.1,1.9,0.2v4.5c-0.4-0.1-1.4-0.3-2.5-0.3
		c-3.7,0-6,2.7-6,6.6v17.4h-4.5V139z"/>
	<path class="st1" d="M166.2,153.1c0,8.6-4.9,14.3-11.9,14.3c-4,0-7.2-1.7-9-4.8h-0.1v14h-4.5V139h4.3v4.6h0.1
		c1.6-2.9,5.2-4.8,9.1-4.8C161.4,138.8,166.2,144.5,166.2,153.1z M161.6,153.1c0-6.2-3.3-10.3-8.2-10.3c-4.9,0-8.2,4.2-8.2,10.3
		c0,6.1,3.3,10.3,8.2,10.3C158.3,163.4,161.6,159.3,161.6,153.1z"/>
	<path class="st1" d="M171,139h4.3v4.6h0.1c0.8-2.9,3.5-4.8,6.8-4.8c0.8,0,1.5,0.1,1.9,0.2v4.5c-0.4-0.1-1.4-0.3-2.5-0.3
		c-3.7,0-6,2.7-6,6.6v17.4H171V139z"/>
	<path class="st1" d="M187.6,131.6c0-1.6,1.3-2.9,2.9-2.9c1.6,0,2.9,1.3,2.9,2.9c0,1.6-1.3,2.9-2.9,2.9
		C188.9,134.5,187.6,133.2,187.6,131.6z M188.2,139h4.5v28.1h-4.5V139z"/>
	<path class="st1" d="M209.1,138.8c5.7,0,10,3.4,10.2,8h-4.4c-0.3-2.6-2.6-4.3-6-4.3c-3.5,0-5.8,1.6-5.8,4.1c0,1.9,1.5,3.2,4.7,4
		l4.3,1.1c5.7,1.4,7.7,3.4,7.7,7.5c0,4.8-4.6,8.2-11.1,8.2c-6,0-10.4-3.3-10.9-8.2h4.6c0.5,2.9,2.8,4.4,6.6,4.4
		c3.8,0,6.2-1.6,6.2-4.1c0-2-1.2-3-4.4-3.9l-4.9-1.3c-4.9-1.3-7.3-3.8-7.3-7.5C198.7,142.1,203,138.8,209.1,138.8z"/>
	<path class="st1" d="M248,159.1c-0.8,4.8-5.7,8.3-11.7,8.3c-7.9,0-12.9-5.5-12.9-14.2c0-8.7,5-14.4,12.7-14.4
		c7.5,0,12.2,5.3,12.2,13.8v1.8h-20.2v0.3c0,5.3,3.3,8.8,8.3,8.8c3.5,0,6.3-1.7,7.1-4.3H248z M228.1,150.7h15.5
		c-0.1-4.8-3.1-8-7.6-8C231.6,142.8,228.4,146,228.1,150.7z"/>
	<path class="st1" d="M263,138.8c5.7,0,10,3.4,10.2,8h-4.4c-0.3-2.6-2.6-4.3-6-4.3c-3.5,0-5.8,1.6-5.8,4.1c0,1.9,1.5,3.2,4.7,4
		l4.3,1.1c5.7,1.4,7.7,3.4,7.7,7.5c0,4.8-4.6,8.2-11.1,8.2c-6,0-10.4-3.3-10.9-8.2h4.6c0.5,2.9,2.8,4.4,6.6,4.4s6.2-1.6,6.2-4.1
		c0-2-1.2-3-4.4-3.9l-4.9-1.3c-4.9-1.3-7.3-3.8-7.3-7.5C252.6,142.1,256.9,138.8,263,138.8z"/>
</g>
</svg>
